<svg width="212" height="291" viewBox="0 0 212 291" fill="none" xmlns="http://www.w3.org/2000/svg">
<path d="M111.358 81.1661H103.448C99.9105 81.1661 97.0425 84.034 97.0425 87.572V115.436V143.301C97.0425 146.839 99.9105 149.707 103.448 149.707H117.381C128.595 149.707 137.719 140.583 137.719 129.369C137.719 122.271 134.062 116.014 128.535 112.374C130.534 109.227 131.697 105.5 131.697 101.504C131.697 90.29 122.573 81.1661 111.358 81.1661ZM109.854 93.9779H111.358C115.509 93.9779 118.885 97.3544 118.885 101.504C118.885 105.654 115.508 109.031 111.358 109.031H109.854V93.9779ZM117.381 136.895H109.854V121.842H111.358H117.381C121.53 121.842 124.907 125.219 124.907 129.369C124.906 133.519 121.53 136.895 117.381 136.895Z" fill="white" stroke="#D4B5B5"/>
<path d="M159.515 93.9798C163.665 93.9798 167.042 97.3564 167.042 101.507C167.042 105.045 169.91 107.913 173.448 107.913C176.986 107.913 179.854 105.045 179.854 101.507C179.854 90.2919 170.73 81.168 159.515 81.168C148.3 81.168 139.176 90.2919 139.176 101.507V129.366C139.176 140.581 148.3 149.705 159.515 149.705C170.73 149.705 179.854 140.581 179.854 129.366C179.854 125.828 176.986 122.96 173.448 122.96C169.91 122.96 167.042 125.828 167.042 129.366C167.042 133.516 163.665 136.893 159.515 136.893C155.365 136.893 151.988 133.516 151.988 129.366V101.507C151.988 97.3564 155.365 93.9798 159.515 93.9798Z" fill="white" stroke="#D4B5B5"/>
<path d="M57.3361 149.503C57.8742 149.642 58.4136 149.709 58.9447 149.709C61.7946 149.709 64.3954 147.793 65.1424 144.905L67.2294 136.835H79.4762L81.5633 144.905C82.4492 148.331 85.9443 150.388 89.3695 149.503C92.7948 148.617 94.8536 145.123 93.9677 141.697L79.555 85.9686C78.8235 83.1416 76.2733 81.1667 73.3528 81.1667C70.4324 81.1667 67.8822 83.1416 67.1506 85.9686L52.738 141.697C51.852 145.122 53.9109 148.617 57.3361 149.503ZM76.1625 124.022H70.5426L73.3528 113.157L76.1625 124.022Z" fill="white" stroke="#D4B5B5"/>
<path d="M173.448 155.151H58.9402C55.4022 155.151 52.5343 158.019 52.5343 161.557C52.5343 165.095 55.4022 167.963 58.9402 167.963H173.448C176.986 167.963 179.854 165.095 179.854 161.557C179.854 158.019 176.986 155.151 173.448 155.151Z" fill="white" stroke="#D4B5B5"/>
<path d="M58.9402 74.7615H173.448C176.986 74.7615 179.854 71.8935 179.854 68.3556C179.854 64.8176 176.986 61.9496 173.448 61.9496H58.9402C55.4022 61.9496 52.5343 64.8176 52.5343 68.3556C52.5343 71.8935 55.4022 74.7615 58.9402 74.7615Z" fill="white" stroke="#D4B5B5"/>
<g style="mix-blend-mode:lighten">
<path d="M204.179 0H35.9244C16.7868 0 1.21719 15.5696 1.21719 34.7072V255.292C1.21719 274.43 16.7868 290 35.9244 290H204.178C207.716 290 210.584 287.132 210.584 283.594V6.40591C210.585 2.86793 207.717 0 204.179 0ZM197.773 220.585H42.3303V12.8118H197.772V220.585H197.773ZM29.5191 13.7701V221.188C23.7231 222.274 18.4299 224.8 14.0297 228.388V34.7072C14.0297 24.8626 20.5618 16.5157 29.5191 13.7701ZM35.9251 277.188C23.8518 277.188 14.0297 267.366 14.0297 255.292C14.0297 243.219 23.8518 233.397 35.9251 233.397H197.773V239.918H50.0181C46.4801 239.918 43.6121 242.786 43.6121 246.324C43.6121 249.862 46.4801 252.73 50.0181 252.73H197.774V257.854H158.919C155.381 257.854 152.513 260.722 152.513 264.26C152.513 267.798 155.381 270.666 158.919 270.666H197.774V277.188H35.9251Z" fill="#856C3C"/>
<path d="M204.179 0H35.9244C16.7868 0 1.21719 15.5696 1.21719 34.7072V255.292C1.21719 274.43 16.7868 290 35.9244 290H204.178C207.716 290 210.584 287.132 210.584 283.594V6.40591C210.585 2.86793 207.717 0 204.179 0ZM197.773 220.585H42.3303V12.8118H197.772V220.585H197.773ZM29.5191 13.7701V221.188C23.7231 222.274 18.4299 224.8 14.0297 228.388V34.7072C14.0297 24.8626 20.5618 16.5157 29.5191 13.7701ZM35.9251 277.188C23.8518 277.188 14.0297 267.366 14.0297 255.292C14.0297 243.219 23.8518 233.397 35.9251 233.397H197.773V239.918H50.0181C46.4801 239.918 43.6121 242.786 43.6121 246.324C43.6121 249.862 46.4801 252.73 50.0181 252.73H197.774V257.854H158.919C155.381 257.854 152.513 260.722 152.513 264.26C152.513 267.798 155.381 270.666 158.919 270.666H197.774V277.188H35.9251Z" fill="#7E2222" fill-opacity="0.2"/>
<path d="M204.179 0H35.9244C16.7868 0 1.21719 15.5696 1.21719 34.7072V255.292C1.21719 274.43 16.7868 290 35.9244 290H204.178C207.716 290 210.584 287.132 210.584 283.594V6.40591C210.585 2.86793 207.717 0 204.179 0ZM197.773 220.585H42.3303V12.8118H197.772V220.585H197.773ZM29.5191 13.7701V221.188C23.7231 222.274 18.4299 224.8 14.0297 228.388V34.7072C14.0297 24.8626 20.5618 16.5157 29.5191 13.7701ZM35.9251 277.188C23.8518 277.188 14.0297 267.366 14.0297 255.292C14.0297 243.219 23.8518 233.397 35.9251 233.397H197.773V239.918H50.0181C46.4801 239.918 43.6121 242.786 43.6121 246.324C43.6121 249.862 46.4801 252.73 50.0181 252.73H197.774V257.854H158.919C155.381 257.854 152.513 260.722 152.513 264.26C152.513 267.798 155.381 270.666 158.919 270.666H197.774V277.188H35.9251Z" stroke="#D4B5B5"/>
</g>
</svg>
